<!-- Generated by IcoMoon.io -->
<svg version="1.1" xmlns="http://www.w3.org/2000/svg" width="768" height="768" viewBox="0 0 768 768">
<title></title>
<g id="icomoon-ignore">
</g>
<path d="M666.656 168.384c-5.952 7.744-12.512 15.2-19.712 22.272-7.456 7.424-11.104 18.144-8.896 29.056 1.184 5.824 1.92 12.928 1.952 20.288 0 168.192-77.728 287.072-185.92 348.736-84.704 48.288-190.016 62.56-295.104 35.84 39.84-11.552 78.72-29.472 114.976-54.080 4.704-3.168 8.736-7.776 11.264-13.472 7.168-16.16-0.096-35.072-16.256-42.24-88.768-39.456-132.16-93.792-152.608-146.976-13.344-34.688-17.472-70.336-16.64-103.264 0.672-25.952 4.416-49.92 8.896-69.824 12.608 10.976 25.696 22.592 39.52 33.216 65.632 50.464 147.968 79.328 236.64 77.024 17.376-0.48 31.232-14.624 31.232-32v-32.352c-0.064-5.728 0.288-11.424 1.088-17.056 3.616-25.792 16.128-50.208 37.184-68.512 23.2-20.192 52.352-29.056 80.832-27.072s56.096 14.816 76.288 38.016c8.064 9.152 20.768 13.312 33.056 9.728 7.392-2.144 14.816-4.576 22.24-7.296zM717.568 69.856c-23.68 16.704-48.736 29.632-73.184 38.56-29.792-26.752-66.912-41.664-104.832-44.32-44.736-3.104-90.752 10.848-127.264 42.624-33.152 28.832-52.864 67.456-58.56 107.904-1.184 8.48-1.76 17.024-1.728 25.6-61.504-4.544-118.176-27.2-164.8-63.040-24.8-19.072-46.784-41.888-65.088-67.712-10.24-14.4-30.208-17.824-44.608-7.584-4.928 3.488-8.544 8.096-10.72 13.088 0 0-4.224 9.568-9.12 24.32-3.584 10.784-7.712 24.8-11.424 41.28-5.216 23.104-9.664 51.264-10.432 82.272-0.992 39.264 3.84 83.584 20.864 127.872 21.856 56.8 62.912 111.296 132.704 154.336-50.208 23.232-103.84 33.248-155.936 30.944-17.664-0.768-32.608 12.896-33.376 30.56-0.544 12.448 6.080 23.552 16.416 29.376 156.96 87.2 333.632 85.696 469.312 8.352 129.28-73.632 218.208-214.4 218.208-404.288-0.032-5.344-0.256-10.56-0.736-15.648 32.192-35.68 53.632-77.728 63.872-120.992 4.064-17.184-6.592-34.432-23.776-38.496-9.28-2.208-18.56-0.096-25.824 4.992z"></path>
</svg>
